<svg width="84" height="84" viewBox="0 0 64 64" fill="none" xmlns="http://www.w3.org/2000/svg">
  <rect width="64" height="64" rx="12" />
  <g transform="translate(6 10) scale(0.74)">
    <path d="M32.1529 27.2752C31.8997 27.4349 31.6034 27.5319 31.3081 27.5766C31.1037 27.6075 30.8728 27.5981 30.6933 27.4959C30.0786 27.1447 29.5892 26.5995 28.9761 26.2449C28.2377 25.819 27.4744 25.4112 26.6579 25.1656C25.5134 24.8222 24.2985 24.775 23.1376 24.4899C22.0051 24.2117 20.8778 23.8966 19.7891 23.4794C19.2945 23.2896 18.8369 22.9994 18.4153 22.6783C18.1062 22.4422 17.8521 22.1356 17.6194 21.824C17.4649 21.6179 17.3489 21.3809 17.2648 21.1371C17.1686 20.8606 17.0467 20.5687 17.0845 20.2785C17.1661 19.6577 17.6237 19.1013 17.6117 18.4754C17.6014 17.9774 17.1901 17.5705 17.021 17.1017C16.8793 16.7101 16.7239 16.3135 16.6818 15.8996C16.608 15.1878 16.6063 14.4649 16.6758 13.7531C16.7187 13.3109 16.8698 12.8851 17.0141 12.4652C17.136 12.1098 17.2871 11.7629 17.47 11.4349C17.8409 10.7712 18.2367 10.1187 18.6729 9.49532C18.8403 9.25749 19.0739 9.07289 19.2739 8.86081C19.3074 8.88915 19.3409 8.91662 19.3735 8.94496C19.2447 9.14501 19.0859 9.32961 18.9872 9.54598C18.7064 10.1625 18.4316 10.7858 18.2393 11.4349C18.041 12.1072 17.9002 12.7992 17.8186 13.4955C17.7551 14.0356 17.7139 14.5911 17.8066 15.1269C17.9156 15.7554 18.2127 16.3358 18.4153 16.9411C18.4574 16.1933 18.4128 15.4351 18.5407 14.6976C18.6386 14.1326 18.8481 13.5874 19.0868 13.0662C19.2834 12.6369 19.5349 12.2274 19.8363 11.8642C20.2888 11.3181 20.8031 10.8244 21.3346 10.3548C21.763 9.97614 22.2284 9.63699 22.7083 9.32704C22.8345 9.24547 22.9942 9.23517 23.1376 9.18966C22.5366 9.83962 21.8824 10.4449 21.3346 11.1404C21.0177 11.5422 20.7602 11.9956 20.555 12.4652C20.2665 13.1298 20.0278 13.8201 19.8612 14.5259C19.7359 15.0582 19.7041 15.6103 19.6852 16.1572C19.6792 16.3083 19.7547 16.4517 19.7891 16.5994C19.8698 16.5951 19.9582 16.62 20.0312 16.5865C20.6795 16.2903 21.4539 16.1417 21.9356 15.6171C22.5993 14.8925 22.8174 13.8604 23.3094 13.0104C23.5343 12.6215 23.7996 12.2557 24.0821 11.9071L24.1047 11.8793C24.4965 11.3955 24.8912 10.9083 25.3528 10.4904C26.032 9.87654 26.7532 9.30385 27.5165 8.79899C27.9389 8.51909 28.4326 8.3654 28.8903 8.14904C28.4326 8.52854 27.9458 8.87541 27.5182 9.2884C26.9704 9.81901 26.4527 10.3823 25.971 10.9738C25.5632 11.4753 25.1854 12.0042 24.8548 12.5597C24.3946 13.3341 24.0211 14.1567 23.6047 14.9552C23.6494 14.9947 23.6794 15.0762 23.7387 15.0745C24.7999 15.029 25.8534 14.8221 26.9155 14.8144C27.416 14.8109 27.9054 14.9655 28.4009 15.041C27.8771 15.0891 27.3465 15.09 26.8296 15.1853C25.9899 15.3407 25.1631 15.5639 24.3397 15.7914C23.9602 15.8962 23.5266 15.9288 23.2235 16.1812C22.9637 16.3978 22.8617 16.7638 22.7706 17.0907L22.7676 17.1017C22.5959 17.7173 22.5143 18.3561 22.4387 18.9906C22.4044 19.2748 22.4173 19.5641 22.4387 19.8492C22.4533 20.0518 22.4834 20.257 22.5469 20.4502C22.6319 20.7086 22.7384 20.9637 22.8801 21.1963C23.0234 21.4324 23.2012 21.6497 23.3952 21.8463C23.6073 22.0618 23.8417 22.2576 24.0933 22.425C24.4453 22.6602 24.8171 22.8663 25.1983 23.0501C25.6731 23.2784 26.1599 23.4845 26.6579 23.6571C26.9069 23.7438 27.1679 23.8048 27.4306 23.8236C27.7165 23.8451 28.0033 23.7919 28.2892 23.7764C28.4026 23.6116 28.5434 23.4639 28.6284 23.2836C28.6782 23.1788 28.7022 23.0552 28.6859 22.9402C28.5193 21.7046 28.1768 20.4914 28.0832 19.2482C28.0265 18.5046 28.1167 17.7516 28.2394 17.0158C28.327 16.4843 28.5168 15.9726 28.7108 15.4703C28.8499 15.1097 29.0594 14.7809 29.2337 14.4366C29.1324 15.2102 28.9907 15.9803 28.9298 16.7582C28.9143 16.9591 28.9461 17.1661 29.0045 17.3592C29.05 17.5086 29.1118 17.6709 29.2337 17.7679C29.3496 17.8598 29.5196 17.8444 29.663 17.8821C30.1206 17.5825 30.562 17.2554 31.0368 16.9823C31.2651 16.851 31.521 16.7754 31.7631 16.6724C31.1492 17.276 30.4907 17.8375 29.9206 18.4832C29.7506 18.6746 29.6424 18.9193 29.5617 19.1623C29.4801 19.4096 29.4406 19.674 29.4398 19.935C29.4389 20.3661 29.4612 20.8022 29.5565 21.2229C29.6707 21.7252 29.8562 22.2112 30.064 22.6826C30.2863 23.1874 30.5602 23.6691 30.8444 24.1422C31.3854 25.0437 31.9735 25.9169 32.5376 26.8039C32.4088 26.961 32.3247 27.167 32.1529 27.2752Z" fill="#F9F8F3" />
    <path d="M42.0268 26.0655C41.2438 26.5128 40.5689 27.1353 39.7825 27.5766C39.6356 27.659 39.4459 27.6273 39.2793 27.6058C39.0724 27.5792 38.8698 27.5156 38.6783 27.4349C38.5238 27.3688 38.3692 27.2872 38.249 27.1688C38.1486 27.07 38.1073 26.9258 38.0369 26.8039C38.6302 25.8877 39.2544 24.9905 39.8177 24.0563C40.083 23.6159 40.3268 23.1582 40.5226 22.6826C40.751 22.1253 40.9656 21.5552 41.0867 20.9654C41.1734 20.5447 41.1743 20.1059 41.1382 19.6775C41.1159 19.4104 41.0249 19.1486 40.9132 18.9047C40.8042 18.6652 40.6617 18.4342 40.4814 18.2419C39.9413 17.6649 39.3369 17.1532 38.7642 16.608C38.9934 16.7058 39.2381 16.772 39.451 16.9008C39.9284 17.1918 40.3328 17.5962 40.8248 17.8615C41.0008 17.956 41.218 17.9276 41.4155 17.9603C41.4799 17.8169 41.5718 17.6829 41.6104 17.531C41.668 17.3069 41.716 17.0742 41.7014 16.8441C41.6516 16.0671 41.5134 15.2986 41.419 14.5259C41.4499 14.5551 41.4971 14.5748 41.5117 14.6143C41.7633 15.2943 42.0311 15.9709 42.214 16.6724C42.3523 17.2056 42.427 17.7551 42.4716 18.3037C42.5162 18.8455 42.542 19.3941 42.4828 19.935C42.372 20.9456 42.0938 21.9322 41.9642 22.9402C41.9384 23.1393 41.9376 23.3574 42.0191 23.5412C42.0827 23.6846 42.2166 23.8219 42.3703 23.8554C42.6785 23.9207 43.0031 23.8623 43.3147 23.8168C43.6359 23.7704 43.9613 23.7086 44.2592 23.5798C45.0251 23.2501 45.7695 22.868 46.4916 22.4507C46.7758 22.2859 47.0299 22.0712 47.2643 21.842C47.4627 21.6471 47.6284 21.4204 47.7795 21.1877C47.8945 21.0117 47.9924 20.8211 48.0594 20.6219C48.1435 20.3721 48.2019 20.1111 48.2294 19.8492C48.2594 19.5641 48.2654 19.2748 48.2302 18.9906C48.1495 18.3269 48.0474 17.6632 47.8816 17.0158C47.8095 16.7333 47.6421 16.4843 47.5219 16.2182C46.5714 15.94 45.6364 15.6025 44.6705 15.3845C43.8926 15.2093 43.0924 15.1552 42.3033 15.041C43.07 14.9698 43.8325 14.8272 44.6027 14.8272C45.4209 14.8272 46.2331 14.9698 47.0488 15.041C46.8127 14.4683 46.6358 13.8682 46.3405 13.3238C45.9335 12.5751 45.4587 11.8616 44.9504 11.1773C44.5906 10.6939 44.1785 10.2492 43.7441 9.83189C43.1164 9.22915 42.4278 8.69339 41.7693 8.125C42.0208 8.22631 42.2913 8.28985 42.524 8.4298C43.0683 8.75864 43.5929 9.12355 44.0875 9.52365C44.7615 10.0697 45.4329 10.6278 46.0228 11.2632C46.5869 11.8711 47.0977 12.5348 47.5373 13.238C48.0019 13.9815 48.1298 14.9406 48.7239 15.5862C49.179 16.0799 49.9148 16.2087 50.527 16.4843C50.6335 16.5324 50.7562 16.5307 50.8704 16.5539C50.9297 16.4217 51.0301 16.3006 51.049 16.1572C51.0885 15.8558 51.0765 15.5476 51.0422 15.2454C50.9924 14.8006 50.9142 14.3567 50.7975 13.9248C50.6927 13.5419 50.5631 13.1607 50.3793 12.8087C50.0402 12.1553 49.6787 11.5062 49.2331 10.9197C48.7506 10.2835 48.1495 9.74603 47.6078 9.15961C48.2637 9.57431 48.9738 9.91518 49.5765 10.4046C50.0986 10.827 50.5536 11.3353 50.9563 11.8728C51.3306 12.3725 51.6355 12.9263 51.8922 13.4955C52.0759 13.9034 52.2116 14.3395 52.2682 14.7834C52.3584 15.4781 52.3094 16.1838 52.3301 16.8836C52.4176 16.7565 52.5396 16.6457 52.5936 16.5006C52.7181 16.1684 52.8143 15.8223 52.8581 15.4703C52.9388 14.8161 53.0453 14.1498 52.9663 13.4955C52.8701 12.7005 52.6117 11.9303 52.3395 11.1773C52.0502 10.3797 51.6389 9.63184 51.2886 8.8591C51.3212 8.85395 51.353 8.84794 51.3856 8.84278C51.7574 9.26178 52.1583 9.65674 52.5018 10.0998C52.7413 10.4089 52.95 10.7437 53.1286 11.0915C53.4153 11.6487 53.6909 12.2162 53.8961 12.8087C54.0498 13.2517 54.1305 13.7188 54.2001 14.1824C54.243 14.4658 54.2611 14.756 54.2319 15.041C54.1872 15.4763 54.1151 15.9125 53.9811 16.3289C53.7261 17.1188 53.3733 17.8744 53.0693 18.6471C53.2273 18.9047 53.4274 19.1408 53.545 19.4199C53.636 19.6354 53.6944 19.8732 53.6858 20.1068C53.672 20.4571 53.5896 20.8048 53.478 21.1371C53.3956 21.3835 53.2702 21.6188 53.1097 21.824C52.8547 22.1511 52.5782 22.4722 52.2442 22.7178C51.8235 23.0277 51.3547 23.2767 50.8704 23.4733C50.0041 23.8254 49.1172 24.1388 48.2088 24.3577C47.2514 24.5887 46.2546 24.6204 45.2895 24.8196C44.7933 24.9218 44.3073 25.0772 43.8333 25.2584C43.2177 25.4936 42.5995 25.7375 42.0268 26.0655Z" fill="#F9F8F3" />
    <path d="M30.41 31.0969C30.2434 31.1827 30.0949 31.3252 29.9103 31.3544C29.602 31.4034 29.2809 31.3879 28.9761 31.3252C28.5047 31.2265 28.0454 31.0642 27.6024 30.8753C27.2126 30.7088 26.8416 30.4958 26.4862 30.2649C26.1616 30.0537 25.856 29.8107 25.5675 29.5514C25.3022 29.3135 25.0506 29.0585 24.8299 28.7786C24.5526 28.4266 24.2916 28.0574 24.0787 27.6625C23.8889 27.3087 23.7266 26.9352 23.627 26.5463C23.5206 26.1273 23.5197 25.6877 23.4656 25.2584C25.1313 25.8817 26.8176 26.4501 28.461 27.1275C29.0577 27.3731 29.6544 27.6461 30.1782 28.0239C30.3593 28.1553 30.3997 28.4129 30.5113 28.6069C30.4289 28.7099 30.3722 28.8405 30.264 28.9169C30.1661 28.9864 30.0331 29.0663 29.9206 29.0242C29.4612 28.8559 29.0749 28.5288 28.6327 28.3176C28.4713 28.2412 28.2892 28.2154 28.1175 28.1647C28.0712 28.1974 28.0256 28.2308 27.9793 28.2635C28.3425 28.4635 28.7426 28.6095 29.0706 28.8645C29.1659 28.9392 29.1521 29.0937 29.1925 29.2079L28.9761 29.4861C29.3196 29.438 29.663 29.3891 30.0064 29.341C30.0348 29.4398 30.0631 29.5385 30.0906 29.6372C30.0322 29.6948 29.985 29.766 29.9154 29.809C29.7823 29.8914 29.6424 29.9712 29.4913 30.0107C29.3805 30.0391 29.2595 30.0348 29.1478 30.0082C28.849 29.9377 28.5631 29.8184 28.2712 29.7231C28.3906 29.6656 28.5108 29.6089 28.6301 29.5514C28.4309 29.5419 28.23 29.4999 28.0317 29.5222C27.9604 29.5299 27.9106 29.5986 27.8505 29.6372C27.9965 29.7583 28.1244 29.906 28.2892 30.0004C28.4472 30.0906 28.6232 30.1601 28.8044 30.1824C29.2723 30.24 29.7463 30.2194 30.2168 30.2383L30.41 31.0969Z" fill="#F9F8F3" />
    <path d="M42.4562 31.2102C42.2132 31.3124 41.9564 31.3828 41.6997 31.4403C41.4971 31.4858 41.2893 31.5219 41.0824 31.5167C40.8506 31.5116 40.6248 31.4454 40.3955 31.4094C40.3337 31.3055 40.2109 31.2179 40.2109 31.0969C40.2109 30.8058 40.3337 30.5267 40.3955 30.2425C40.7106 30.27 41.0257 30.3576 41.34 30.3258C41.6096 30.2975 41.8654 30.1799 42.1118 30.0665C42.3686 29.9489 42.5987 29.7806 42.8425 29.6372C42.6845 29.6175 42.5274 29.5977 42.3703 29.5771C42.3239 29.6544 42.3007 29.7523 42.2312 29.809C42.1505 29.8751 42.0449 29.9137 41.941 29.9292C41.6285 29.9747 41.3116 30.0004 40.9965 29.9884C40.8763 29.9833 40.7673 29.9146 40.6531 29.8776C40.5956 29.73 40.5389 29.5814 40.4814 29.4329C40.5389 29.3951 40.5844 29.317 40.6531 29.3204C41.0292 29.335 41.3975 29.4286 41.7693 29.4835C41.6671 29.3917 41.5641 29.2998 41.4619 29.2079C41.4782 29.1401 41.4662 29.0585 41.5117 29.0053C41.6611 28.8319 41.8294 28.6662 42.0268 28.5511C42.2604 28.4146 42.5317 28.3596 42.7841 28.2635C42.6459 28.2515 42.5077 28.2085 42.3703 28.2274C42.135 28.2609 41.8989 28.321 41.6834 28.4206C41.2945 28.6009 40.939 28.8473 40.5672 29.0611C40.4273 28.9383 40.2865 28.8156 40.1465 28.6928C40.2195 28.5494 40.247 28.3717 40.3655 28.2635C40.7407 27.9218 41.1665 27.6376 41.5975 27.3697C42.0088 27.1138 42.4295 26.8605 42.8854 26.6974C43.6384 26.4286 44.4447 26.3333 45.2037 26.0835C45.6785 25.9272 46.1086 25.6568 46.5774 25.4842C46.7414 25.4232 46.9209 25.4181 47.0926 25.3846C47.0703 25.6576 47.0789 25.9341 47.0265 26.2028C46.9535 26.5815 46.853 26.9567 46.7191 27.319C46.5972 27.647 46.4452 27.9655 46.2632 28.2635C46.0528 28.6078 45.833 28.9538 45.5471 29.2388C45.1024 29.6827 44.6172 30.094 44.0875 30.4323C43.5792 30.756 43.0108 30.9758 42.4562 31.2102Z" fill="#F9F8F3" />
    <path d="M37.3904 39.3617C37.2951 39.4347 37.1783 39.4819 37.0616 39.5111C36.889 39.5549 36.7087 39.5549 36.5318 39.5773C36.4339 39.4691 36.336 39.3617 36.2382 39.2536C36.251 39.196 36.2364 39.1248 36.2759 39.0818C36.5361 38.8028 36.8383 38.5667 37.1199 38.3091C37.0762 38.109 37.095 37.8832 36.9886 37.7081C36.9139 37.5853 36.761 37.4943 36.6177 37.4866C35.711 37.4359 34.794 37.4239 33.8925 37.5364C33.7087 37.5595 33.6005 37.7656 33.4546 37.8798C33.452 37.994 33.4202 38.1116 33.4469 38.2232C33.476 38.3477 33.5293 38.4757 33.6186 38.5667C33.8169 38.7676 34.1063 38.8681 34.2909 39.0818C34.3673 39.1703 34.3381 39.3111 34.3613 39.4253C34.2548 39.4734 34.1569 39.5506 34.0419 39.5687C33.9002 39.5919 33.7508 39.585 33.6126 39.5463C33.4709 39.5068 33.3327 39.4364 33.2228 39.3394C33.118 39.2476 33.045 39.1222 32.9866 38.996C32.9231 38.8612 32.863 38.7161 32.8604 38.5667C32.8579 38.3349 32.875 38.091 32.972 37.8798C33.2992 37.1654 33.8641 36.5627 34.1183 35.8192C34.2385 35.4663 34.1363 35.067 34.0573 34.703C33.9723 34.314 33.8212 33.938 33.634 33.5868C33.4666 33.2734 33.1549 33.0493 33.0038 32.7282C32.8922 32.4912 32.9471 32.2045 32.8664 31.9555C32.7771 31.6824 32.6672 31.4068 32.4964 31.1758C32.365 30.9981 32.1796 30.8573 31.9812 30.7603C31.5906 30.5697 31.1613 30.4692 30.7517 30.3241C30.6985 29.523 30.6092 28.7228 30.592 27.92C30.5903 27.8445 30.6598 27.7844 30.6933 27.7165C31.0651 27.732 31.4506 27.8625 31.8095 27.7629C32.2826 27.6307 32.6535 27.2572 33.0974 27.046C33.258 26.9696 33.4357 26.9266 33.6126 26.9052C33.7551 26.888 33.9045 26.8889 34.0419 26.9301C34.4823 27.0631 34.8704 27.4178 35.3298 27.4246C35.7058 27.4298 36.0063 27.0932 36.3601 26.9644C36.4966 26.9146 36.6443 26.882 36.7894 26.8923C37.0229 26.9086 37.2616 26.949 37.4763 27.0434C37.9159 27.2366 38.2705 27.6195 38.7333 27.7483C39.1437 27.8625 39.5841 27.7483 40.01 27.7483L40.0087 27.7596C39.9147 28.6145 39.8207 29.4693 39.7275 30.3241C39.2956 30.5242 38.844 30.6864 38.4327 30.9251C38.2602 31.0247 38.097 31.1604 37.9914 31.3295C37.8231 31.5991 37.7175 31.9074 37.6291 32.213C37.5647 32.4346 37.6342 32.6904 37.5364 32.8999C37.3998 33.1936 37.0968 33.385 36.9474 33.6727C36.737 34.0796 36.5593 34.5115 36.4683 34.9606C36.4056 35.2697 36.379 35.6122 36.4957 35.905C36.7327 36.4975 37.1929 36.9757 37.4969 37.5364C37.5982 37.7227 37.6858 37.9262 37.7064 38.1374C37.7373 38.4439 37.7253 38.7616 37.648 39.0595C37.6145 39.1883 37.4952 39.281 37.3904 39.3617Z" fill="#F9F8F3" />
    <path d="M32.8845 37.1071C32.7428 37.4059 32.6844 37.7364 32.584 38.0515H32.4174C32.1796 37.7656 31.916 37.4986 31.7048 37.1929C31.4807 36.8667 31.2823 36.5215 31.114 36.1626C30.932 35.7745 30.7689 35.3744 30.6581 34.9606C30.507 34.3982 30.44 33.816 30.331 33.2434C30.3945 33.2373 30.4641 33.1987 30.5216 33.2262C31.0805 33.4941 31.6309 33.7834 32.1529 34.1174C32.2731 34.1938 32.3624 34.3183 32.4277 34.4454C32.5651 34.7107 32.6449 35.0026 32.754 35.2808C32.8149 35.031 32.9317 34.788 32.936 34.5313C32.9394 34.296 32.8742 34.0582 32.7763 33.8444C32.6097 33.4795 32.3607 33.1584 32.1529 32.8158C31.8378 32.8733 31.5287 32.9969 31.2085 32.9875C31.023 32.9823 30.8118 32.9171 30.6933 32.7737C30.4375 32.4637 30.3276 32.0568 30.1447 31.6979C30.1842 31.6489 30.2022 31.5648 30.264 31.5511C30.6015 31.4746 30.95 31.4077 31.2943 31.4386C31.4583 31.4532 31.6163 31.5571 31.7236 31.6816C32.1675 32.1976 32.5565 32.7608 32.9257 33.3327C33.1712 33.713 33.3807 34.1174 33.5645 34.5313C33.6478 34.721 33.7079 34.9254 33.7207 35.1323C33.7353 35.3624 33.7353 35.6071 33.6452 35.8192C33.4511 36.2785 33.0983 36.6572 32.8845 37.1071Z" fill="#F9F8F3" />
    <path d="M38.8122 37.3646C38.6285 37.6231 38.3984 37.8489 38.1546 38.0515C38.1116 38.0876 38.0421 38.0515 37.9863 38.0515C37.8446 37.654 37.7493 37.2376 37.5621 36.8589C37.393 36.5163 37.0925 36.2493 36.9268 35.905C36.8512 35.7488 36.8435 35.5624 36.8564 35.3899C36.8735 35.1555 36.9328 34.9228 37.0169 34.703C37.2084 34.2041 37.4102 33.7044 37.6815 33.2434C37.9674 32.7565 38.2833 32.2774 38.6783 31.8739C38.8852 31.6635 39.16 31.4901 39.451 31.4386C39.7911 31.3776 40.1379 31.515 40.4814 31.5528L40.5149 31.6979C40.429 31.7837 40.3071 31.8447 40.2581 31.9555C40.1766 32.1392 40.2049 32.3564 40.1379 32.5462C40.1062 32.6363 40.0461 32.723 39.9662 32.7754C39.8383 32.8596 39.6897 32.9368 39.5369 32.9403C39.1909 32.9463 38.85 32.8493 38.5066 32.8038C38.3512 32.9506 38.1752 33.0776 38.0404 33.2434C37.9605 33.3421 37.9073 33.464 37.8712 33.5868C37.7965 33.8392 37.7321 34.0977 37.7098 34.3595C37.6858 34.6497 37.7261 34.9417 37.7338 35.2336C37.8257 34.9992 37.8721 34.7416 38.0095 34.5313C38.1443 34.3269 38.3331 34.1569 38.5341 34.0161C38.9325 33.7371 39.3609 33.5009 39.7945 33.2803C39.8992 33.227 40.0237 33.2253 40.1379 33.1987C40.1585 33.2416 40.2032 33.2811 40.1997 33.3292C40.1663 33.8178 40.1414 34.3123 40.0289 34.7888C39.9241 35.2345 39.7481 35.6629 39.5524 36.0767C39.3411 36.5241 39.0982 36.9602 38.8122 37.3646Z" fill="#F9F8F3" />
    <path d="M35.8243 51.7033C35.8046 51.7771 35.7239 51.8175 35.6741 51.875C35.5341 51.5032 35.4251 51.1177 35.2551 50.7588C35.1374 50.5115 34.9949 50.272 34.8146 50.0651C33.786 48.8853 32.6664 47.7881 31.6378 46.6075C31.3939 46.3284 31.1887 46.015 31.0041 45.6931C30.8324 45.3926 30.6744 45.0792 30.574 44.7486C30.4203 44.2446 30.3181 43.7243 30.2443 43.2031C30.2125 42.9765 30.2245 42.7429 30.258 42.5162C30.2889 42.3033 30.3765 42.1033 30.4357 41.8963C30.5216 42.3025 30.5577 42.7232 30.6933 43.1164C30.8178 43.4762 30.999 43.8179 31.2085 44.1364C31.4163 44.4524 31.6704 44.7383 31.9383 45.0062C32.2731 45.3419 32.6363 45.651 33.0115 45.9412C33.0845 45.997 33.185 46.0047 33.2708 46.0365C32.875 45.4072 32.4174 44.8121 32.0834 44.1476C31.7528 43.4899 31.4515 42.8047 31.2858 42.0869C31.0333 40.9897 31.0196 39.8494 30.8358 38.7384C30.7019 37.9305 30.4821 37.1397 30.3336 36.3343C30.2924 36.1076 30.2606 35.8775 30.2657 35.6474C30.2666 35.6002 30.3215 35.5727 30.3499 35.535C30.5791 36.0158 30.768 36.5172 31.0368 36.9766C31.2111 37.2736 31.4394 37.5381 31.6704 37.7939C31.8988 38.0464 32.244 38.1992 32.4105 38.4954C32.5805 38.7976 32.5616 39.1729 32.6363 39.5111C32.79 39.5704 32.9351 39.6597 33.0974 39.6897C33.4941 39.7619 33.8976 39.8443 34.2994 39.8151C34.4385 39.8056 34.5459 39.6777 34.6429 39.5781C34.7047 39.5137 34.7485 39.427 34.7614 39.3394C34.7742 39.2536 34.7751 39.1462 34.7167 39.0818C34.5235 38.8681 34.2479 38.7436 34.0419 38.5426C33.9508 38.4542 33.9045 38.3297 33.8349 38.2232L33.956 37.8841C34.0702 37.8506 34.1801 37.7776 34.2994 37.7836C34.6188 37.8 34.9245 37.9485 35.2439 37.9511C35.6758 37.9536 36.1025 37.8489 36.5318 37.7982C36.6074 37.9974 36.6829 38.1958 36.7576 38.395C36.5249 38.5667 36.2442 38.6877 36.0596 38.9101C35.9445 39.0484 35.954 39.2536 35.9016 39.4253C36.0261 39.5317 36.13 39.6666 36.2742 39.7438C36.4047 39.8134 36.5558 39.8649 36.7035 39.8563C37.0804 39.8366 37.4479 39.7258 37.8197 39.6605C37.9408 39.4674 38.1245 39.3025 38.182 39.0818C38.2447 38.8406 38.0472 38.5555 38.1631 38.3349C38.3778 37.9262 38.8303 37.6918 39.1076 37.3226C39.5197 36.7739 39.852 36.1695 40.2238 35.5925C40.4462 36.3266 40.6067 37.0822 40.8918 37.7939C41.3528 38.947 41.935 40.0486 42.4562 41.176C42.5798 40.9072 42.7455 40.6539 42.8262 40.3697C42.9765 39.8391 43.0374 39.2862 43.143 38.7453C43.21 38.8002 43.2984 38.8363 43.3448 38.9101C43.4272 39.0406 43.4933 39.1875 43.5182 39.3394C43.5835 39.7361 43.629 40.1396 43.6127 40.5415C43.5955 40.9751 43.5543 41.4172 43.4178 41.8294C43.2229 42.4201 42.9773 43.0056 42.6279 43.5208C41.9041 44.5898 40.9587 45.4947 40.2178 46.5517C39.5541 47.4978 39.02 48.529 38.4207 49.5181C38.4156 49.0442 38.3632 48.5694 38.4053 48.0972C38.4388 47.7177 38.5143 47.3381 38.6448 46.981C38.8715 46.3602 39.1943 45.7789 39.4699 45.1779C39.1772 45.4595 38.8371 45.6982 38.5924 46.0219C37.8789 46.9629 37.1946 47.9323 36.6056 48.9558C36.3472 49.4057 36.2081 49.9165 36.0664 50.4154C35.9462 50.8352 35.9377 51.2817 35.8243 51.7033Z" fill="#F9F8F3" />
  </g>
</svg>
